<svg id="Capa_1" enable-background="new 0 0 498.42 498.42" height="512" viewBox="0 0 498.42 498.42" width="512" xmlns="http://www.w3.org/2000/svg"><g><g id="XMLID_499_"><g><path d="m249.21 0c47.27 0 85.59 38.32 85.59 85.6 0 47.27-38.32 85.59-85.59 85.59s-85.59-38.32-85.59-85.59c0-47.28 38.32-85.6 85.59-85.6z" fill="#dff6fd"/></g></g><g><path d="m314.91 140.44c-15.69 18.8-39.3 30.75-65.7 30.75s-50.01-11.95-65.7-30.75c.09-18.41 7.77-35.02 20.05-46.9l22.92-16.16h48.36l20.02 16.16c12.28 11.88 19.96 28.49 20.05 46.9z" fill="#fee97d"/></g><path d="m294.86 93.54-20.02-16.16h-38.957l-20.957 8.146-11.366 8.014c-12.28 11.88-19.96 28.49-20.05 46.9 5.733 6.87 12.527 12.819 20.125 17.61.552-6.844 2.155-13.389 4.644-19.478 3.441-8.416 12.662-12.852 21.419-10.405 6.21 1.735 12.753 2.666 19.512 2.666 22.105 0 41.928-9.9 55.311-25.484-2.763-4.302-6.002-8.269-9.661-11.809z" fill="#fee45a"/><path d="m249.21.004c-31.986 0-57.915 25.929-57.915 57.915 0 1.3.058 2.587.143 3.866l4.543-1.923 9.135 26.796 36.744 23.143 15.428 3.293h9.543c23.367-7.457 40.293-29.336 40.293-55.176.001-31.984-25.928-57.914-57.914-57.914z" fill="#ffe5c2"/><path d="m226.536 57.919c0-25.84 16.942-47.724 40.31-55.181-5.557-1.773-11.491-2.734-17.636-2.734-31.986 0-57.915 25.929-57.915 57.915 0 31.985 25.929 57.915 57.915 57.915 6.145 0 12.079-.966 17.636-2.739-23.368-7.456-40.31-29.335-40.31-55.176z" fill="#fed2a4"/><g id="XMLID_501_"><g><path d="m412.134 162.29c47.27 0 85.59 38.32 85.59 85.6 0 47.27-38.32 85.59-85.59 85.59s-85.59-38.32-85.59-85.59c0-47.28 38.32-85.6 85.59-85.6z" fill="#dff6fd"/></g></g><g><path d="m477.834 302.73c-15.69 18.8-39.3 30.75-65.7 30.75s-50.01-11.95-65.7-30.75c.09-18.41 7.77-35.02 20.05-46.9l22.92-16.16h48.36l20.02 16.16c12.28 11.88 19.96 28.49 20.05 46.9z" fill="#5f99d7"/></g><path d="m457.784 255.83-20.02-16.16h-38.957l-20.957 8.146-11.366 8.014c-12.28 11.88-19.96 28.49-20.05 46.9 5.733 6.87 12.527 12.819 20.125 17.61.552-6.844 2.155-13.389 4.644-19.478 3.441-8.416 12.662-12.852 21.419-10.405 6.21 1.735 12.753 2.666 19.512 2.666 22.105 0 41.928-9.9 55.311-25.484-2.763-4.302-6.002-8.27-9.661-11.809z" fill="#3c87d0"/><path d="m412.134 162.294c-31.986 0-57.915 25.929-57.915 57.915 0 1.3.058 2.587.143 3.866l4.543-1.923 9.135 26.796 36.744 23.143 15.428 3.293h9.543c23.367-7.457 40.293-29.336 40.293-55.176.001-31.985-25.928-57.914-57.914-57.914z" fill="#ffe5c2"/><path d="m389.46 220.209c0-25.84 16.942-47.724 40.31-55.181-5.557-1.773-11.491-2.734-17.636-2.734-31.986 0-57.915 25.929-57.915 57.915 0 31.985 25.929 57.915 57.915 57.915 6.145 0 12.079-.966 17.636-2.739-23.368-7.456-40.31-29.335-40.31-55.176z" fill="#fed2a4"/><g id="XMLID_504_"><g><path d="m249.21 327.23c47.27 0 85.59 38.32 85.59 85.6 0 47.27-38.32 85.59-85.59 85.59s-85.59-38.32-85.59-85.59c0-47.28 38.32-85.6 85.59-85.6z" fill="#dff6fd"/></g></g><g><path d="m314.91 467.67c-15.69 18.8-39.3 30.75-65.7 30.75s-50.01-11.95-65.7-30.75c.09-18.41 7.77-35.02 20.05-46.9l22.92-16.16h48.36l20.02 16.16c12.28 11.88 19.96 28.49 20.05 46.9z" fill="#ade194"/></g><path d="m294.86 420.77-20.02-16.16h-38.957l-20.957 8.146-11.366 8.014c-12.28 11.88-19.96 28.49-20.05 46.9 5.733 6.87 12.527 12.819 20.125 17.61.552-6.844 2.155-13.389 4.644-19.478 3.441-8.416 12.662-12.852 21.419-10.405 6.21 1.735 12.753 2.666 19.512 2.666 22.105 0 41.928-9.9 55.311-25.484-2.763-4.302-6.002-8.269-9.661-11.809z" fill="#97da7b"/><path d="m249.21 327.234c-31.986 0-57.915 25.929-57.915 57.915 0 1.3.058 2.587.143 3.866l4.543-1.923 9.135 26.796 36.744 23.143 15.428 3.293h9.543c23.367-7.457 40.293-29.336 40.293-55.176.001-31.984-25.928-57.914-57.914-57.914z" fill="#ffe5c2"/><path d="m226.536 385.149c0-25.84 16.942-47.724 40.31-55.181-5.557-1.773-11.491-2.734-17.636-2.734-31.986 0-57.915 25.929-57.915 57.915 0 31.985 25.929 57.915 57.915 57.915 6.145 0 12.079-.966 17.636-2.739-23.368-7.456-40.31-29.335-40.31-55.176z" fill="#fed2a4"/><g id="XMLID_506_"><g><path d="m86.286 162.29c47.27 0 85.59 38.32 85.59 85.6 0 47.27-38.32 85.59-85.59 85.59s-85.59-38.32-85.59-85.59c0-47.28 38.32-85.6 85.59-85.6z" fill="#dff6fd"/></g></g><g><path d="m151.986 302.73c-15.69 18.8-39.3 30.75-65.7 30.75s-50.01-11.95-65.7-30.75c.09-18.41 7.77-35.02 20.05-46.9l22.92-16.16h48.36l20.02 16.16c12.28 11.88 19.96 28.49 20.05 46.9z" fill="#f37c7c"/></g><path d="m131.936 255.83-20.02-16.16h-38.957l-20.957 8.146-11.366 8.014c-12.28 11.88-19.96 28.49-20.05 46.9 5.733 6.87 12.527 12.819 20.125 17.61.552-6.844 2.155-13.389 4.644-19.478 3.441-8.416 12.662-12.852 21.419-10.405 6.21 1.735 12.753 2.666 19.512 2.666 22.105 0 41.928-9.9 55.311-25.484-2.763-4.302-6.002-8.27-9.661-11.809z" fill="#ee6161"/><path d="m86.286 162.294c-31.986 0-57.915 25.929-57.915 57.915 0 1.3.058 2.587.143 3.866l4.543-1.923 9.135 26.796 36.744 23.143 15.428 3.293h9.543c23.367-7.457 40.293-29.336 40.293-55.176.001-31.985-25.929-57.914-57.914-57.914z" fill="#ffe5c2"/><path d="m63.611 220.209c0-25.84 16.942-47.724 40.31-55.181-5.557-1.773-11.491-2.734-17.636-2.734-31.986 0-57.915 25.929-57.915 57.915 0 31.985 25.929 57.915 57.915 57.915 6.145 0 12.079-.966 17.636-2.739-23.367-7.456-40.31-29.335-40.31-55.176z" fill="#fed2a4"/><g><g><path d="m415.825 141.186c-2.371 0-4.703-1.121-6.16-3.213-13.382-19.206-29.926-35.703-49.17-49.033-3.405-2.358-4.253-7.03-1.895-10.436 2.359-3.405 7.032-4.252 10.436-1.895 20.719 14.35 38.529 32.11 52.936 52.787 2.368 3.399 1.533 8.073-1.866 10.441-1.306.911-2.801 1.349-4.281 1.349z" fill="#99e6fc"/></g><g><path d="m364.772 423.147c-2.378 0-4.716-1.128-6.172-3.23-2.358-3.405-1.51-8.077 1.895-10.436 19.245-13.33 35.788-29.827 49.17-49.033 2.368-3.397 7.043-4.232 10.441-1.865 3.398 2.368 4.234 7.042 1.866 10.441-14.407 20.677-32.217 38.438-52.936 52.787-1.303.902-2.791 1.336-4.264 1.336z" fill="#99e6fc"/></g><g><path d="m133.64 422.447c-1.488 0-2.991-.441-4.301-1.361-20.26-14.215-37.711-31.721-51.869-52.03-2.369-3.398-1.534-8.073 1.864-10.441 3.397-2.37 8.072-1.536 10.442 1.863 13.15 18.865 29.36 35.126 48.178 48.329 3.391 2.379 4.211 7.057 1.832 10.447-1.46 2.08-3.785 3.193-6.146 3.193z" fill="#99e6fc"/></g><g><path d="m83.616 141.154c-1.48 0-2.976-.438-4.283-1.349-3.398-2.368-4.232-7.043-1.864-10.441 14.158-20.31 31.608-37.815 51.869-52.03 3.389-2.378 8.067-1.56 10.447 1.832 2.379 3.391 1.559 8.068-1.832 10.447-18.818 13.203-35.028 29.464-48.178 48.329-1.458 2.091-3.789 3.212-6.159 3.212z" fill="#99e6fc"/></g></g></g></svg>